<svg width="20" height="20" viewBox="0 0 20 20" fill="none" xmlns="http://www.w3.org/2000/svg">
<path d="M5.71 17.8499C6.10212 17.8499 6.42 17.5321 6.42 17.1399C6.42 16.7478 6.10212 16.4299 5.71 16.4299C5.31788 16.4299 5 16.7478 5 17.1399C5 17.5321 5.31788 17.8499 5.71 17.8499Z" fill="#636AE8"/>
<path d="M15.71 17.8499C16.1021 17.8499 16.42 17.5321 16.42 17.1399C16.42 16.7478 16.1021 16.4299 15.71 16.4299C15.3179 16.4299 15 16.7478 15 17.1399C15 17.5321 15.3179 17.8499 15.71 17.8499Z" fill="#636AE8"/>
<path d="M5.71 17.8499C6.10212 17.8499 6.42 17.5321 6.42 17.1399C6.42 16.7478 6.10212 16.4299 5.71 16.4299C5.31788 16.4299 5 16.7478 5 17.1399C5 17.5321 5.31788 17.8499 5.71 17.8499Z" stroke="#636AE8" stroke-width="1.704" stroke-miterlimit="10" stroke-linecap="square"/>
<path d="M15.71 17.8499C16.1021 17.8499 16.42 17.5321 16.42 17.1399C16.42 16.7478 16.1021 16.4299 15.71 16.4299C15.3179 16.4299 15 16.7478 15 17.1399C15 17.5321 15.3179 17.8499 15.71 17.8499Z" stroke="#636AE8" stroke-width="1.704" stroke-miterlimit="10" stroke-linecap="square"/>
<path d="M4.883 6.43501L17.095 6.43501L15.9036 12.3933C15.7708 13.0572 15.1879 13.535 14.5113 13.535L6.97821 13.535C6.26679 13.535 5.66471 13.0082 5.57099 12.3024L4.315 2.88501L2.185 2.88501" stroke="#636AE8" stroke-width="1.704" stroke-miterlimit="10" stroke-linecap="round"/>
</svg>
