<svg width="155" height="97" viewBox="0 0 155 97" fill="none" xmlns="http://www.w3.org/2000/svg">
<g clip-path="url(#clip0_0_126)">
<path d="M144.643 60.7128C148.777 63.2928 153.754 62.9058 157.424 59.7668C159.449 58.0468 160.377 55.6818 161.178 53.2308V49.6618C160.419 47.3828 159.575 45.1468 157.761 43.4698C153.965 39.9868 148.735 39.4708 144.39 42.3948C143.589 42.9108 143.041 42.9538 142.239 42.5238C136.207 39.5138 130.133 36.5468 124.102 33.5368C123.596 33.2788 123.005 32.6338 122.921 32.0748C120.432 19.1748 110.182 9.58576 98.2032 7.82276C94.3648 8.08076 94.0696 13.0258 98.625 13.4558C106.85 15.1758 113.768 21.1958 116.678 29.7098C119.968 39.2988 116.762 49.9628 110.435 55.4668C108.833 57.5738 106.555 59.2078 104.024 59.9388C103.644 60.3258 102.927 60.5838 101.662 61.0138C95.7568 63.0348 89.9359 62.8198 84.1573 60.4118C84.0307 60.3688 83.9042 60.2828 83.7777 60.2398C81.1203 59.4228 77.4085 55.5958 77.4085 55.7248C72.0094 51.7258 67.8758 41.8788 69.9426 32.6338C72.0516 23.0878 80.4454 14.7888 87.8691 13.7138C92.0449 13.1118 91.3701 7.69376 86.1819 8.51076C73.9075 11.8218 65.1341 22.5288 64.0796 35.4718C64.0374 35.9878 63.7843 36.6328 63.4047 36.9768C58.3431 41.4488 53.2393 45.8778 48.2199 50.2638C46.1109 48.9738 44.1706 47.4258 41.9773 46.4798C39.0669 45.2758 36.0299 44.4588 32.9929 43.6418C32.0228 43.3838 31.5588 43.1258 31.601 42.0078C31.6854 38.1378 31.6432 34.2678 31.601 30.3978C31.601 29.6668 31.6432 29.1508 32.4868 28.8068C37.2109 26.9148 39.9526 22.7008 39.6996 18.0138C39.4043 13.0258 36.283 9.19876 31.2636 7.77976C31.0105 7.69376 30.7996 7.60776 30.5465 7.47876H27.383C27.2565 7.56476 27.1299 7.65076 26.9612 7.69376C21.8152 8.68276 18.6096 13.1548 18.1878 17.4548C17.7238 22.5288 20.8451 27.4308 25.4005 28.8928C25.738 29.0218 26.1598 29.5378 26.1598 29.8818C26.202 34.3538 26.202 38.7828 26.202 43.3838C18.1034 44.3298 11.3968 47.8558 6.20864 54.1338C1.0205 60.3688 -1.34158 67.7648 -0.624521 76.0208C0.00817952 83.2018 3.08732 89.6948 7.72712 94.5968C7.72712 94.5968 8.35982 95.0698 8.402 95.0698C12.6622 96.4458 13.5901 91.9738 11.0172 90.0388C6.46172 85.3518 3.1295 76.4078 5.36504 67.5498C8.06456 56.8858 17.1333 49.2318 27.6361 48.7588C38.5607 48.2428 48.2621 54.8648 51.8896 65.4858C55.2218 75.1178 52.0161 85.7818 45.2251 91.6728C45.2251 91.5008 44.4659 92.3178 44.0441 92.7908C42.9052 94.0808 38.5607 96.2308 37.2531 96.7038C32.1072 98.5098 26.9612 98.6388 21.8996 97.0908C18.3143 95.7578 15.9944 99.8428 19.0735 102.122C20.8873 102.767 22.8276 103.24 24.7678 103.541C31.5166 104.444 37.8858 103.283 43.7488 99.7138C51.5521 95.0268 56.3185 88.0178 58.2166 78.8158C61.9284 81.7828 65.4715 84.6208 69.099 87.4158C70.0692 88.1468 70.1957 88.7488 69.9004 89.9528C68.8038 94.0808 69.8583 97.7788 72.8952 100.746C75.426 103.24 79.0957 104.272 82.5123 103.498C87.1521 102.423 90.0203 99.3697 90.8217 94.6827C91.6231 90.2108 90.0625 86.4698 86.435 83.8468C82.7232 81.2238 78.7582 81.0948 74.8355 83.3738C73.9075 83.9328 73.317 83.8898 72.5156 83.2018C68.2554 79.7618 63.9531 76.4078 59.6929 72.9248C59.1024 72.4518 58.7227 71.5918 58.5118 70.8178C57.8791 68.2808 57.6682 65.5718 56.7403 63.1638C55.5592 60.0678 53.7877 57.1438 52.1848 53.9618C56.0654 50.5648 60.199 46.9958 64.4592 43.2978C68.6772 63.5938 90.5265 74.6878 109.339 63.5508C113.304 68.9688 117.311 74.3868 121.36 79.8908C120.812 80.0628 120.474 80.1918 120.095 80.3208C113.177 82.5998 107.652 86.7708 103.729 93.0488C99.0046 100.703 97.9501 108.916 100.228 117.645C100.354 118.204 100.397 119.193 100.059 119.451C96.7269 122.117 93.2682 124.697 89.8094 127.32C89.472 126.804 89.2189 126.417 88.9658 125.987C80.6985 112.442 62.4768 107.884 49.0635 116.097C40.8384 121.128 35.9455 128.481 34.5536 138.199C34.4271 139.188 34.0474 139.532 33.0351 139.532C29.2389 139.489 25.4427 139.489 21.6465 139.532C20.7186 139.532 20.2968 139.274 19.9593 138.328C19.1579 135.963 17.5972 134.157 15.4882 132.867C9.92048 129.513 3.21386 131.534 0.26126 137.382C-2.48044 142.843 -0.0340009 149.723 5.57594 152.26C11.1859 154.797 17.7238 152.002 19.9593 146.025C20.2546 145.208 20.6342 144.993 21.4356 144.993C25.3162 145.036 29.2389 145.036 33.1195 144.993C34.0896 144.993 34.3849 145.38 34.5114 146.283C34.6801 147.487 34.891 148.734 35.1863 149.895C37.9702 160.86 47.3763 170.836 60.7052 172.341C71.7985 173.588 82.8497 168.428 89.008 158.108C90.6952 155.313 91.7919 152.174 93.1838 149.121C95.8833 150.454 98.7937 151.873 101.662 153.292C104.572 154.711 107.525 156.173 110.435 157.592C110.267 158.237 110.14 158.71 110.056 159.14C108.495 166.321 114.569 173.158 121.655 172.298C126.295 171.739 129.88 168.557 131.019 163.956C132.074 159.656 130.344 154.969 126.675 152.346C123.132 149.809 118.281 149.809 114.485 152.303C114.021 152.604 113.177 152.733 112.713 152.518C106.597 149.594 100.565 146.627 94.4914 143.574C94.0696 143.359 93.69 142.671 93.6056 142.155C93.3525 140.306 93.6478 138.242 92.9307 136.608C91.3279 132.824 93.1838 131.061 95.9677 129.255C98.3298 127.75 100.523 125.858 102.801 124.095C103.054 124.482 103.223 124.697 103.349 124.912C109.381 135.06 121.402 141.209 133.93 138.93C150.211 136.006 161.389 119.021 157.593 102.681C154.303 88.4478 142.83 79.1168 128.362 78.8588C127.771 78.8588 126.97 78.4288 126.59 77.9128C122.372 72.2798 118.197 66.6038 114.021 60.9278C113.81 60.6268 113.641 60.3258 113.472 60.0248C120.01 52.8008 121.149 50.3928 123.216 39.2558C128.826 42.0078 134.394 44.7598 139.961 47.5118C139.877 47.9418 139.793 48.2428 139.708 48.5868C138.823 53.3598 140.721 58.3048 144.643 60.7128ZM150.422 46.0068C153.67 46.0068 156.243 48.9308 155.737 52.2848C155.357 54.7788 153.29 56.7568 150.844 56.9288C147.638 57.1868 145.023 54.6068 145.065 51.3818C145.065 48.3718 147.469 46.0068 150.422 46.0068ZM23.5868 18.4438C23.5868 15.3908 26.0332 12.8968 29.028 12.9398C31.9384 12.9828 34.3427 15.4768 34.3427 18.4438C34.3427 21.4968 31.8963 23.9048 28.8593 23.9048C25.9067 23.8618 23.5868 21.4538 23.5868 18.4438ZM80.1502 87.2868C83.145 87.2438 85.5914 89.7378 85.5914 92.7908C85.5914 95.7578 83.1871 98.2088 80.2767 98.2518C77.2819 98.2948 74.8355 95.8007 74.8355 92.7478C74.8355 89.7378 77.2398 87.2868 80.1502 87.2868ZM10.047 147.745C7.05224 147.745 4.6058 145.251 4.64798 142.198C4.69016 139.231 7.1366 136.78 10.047 136.78C13.0418 136.78 15.4039 139.274 15.4039 142.37C15.3617 145.38 12.9996 147.745 10.047 147.745ZM80.6985 160.086C79.0535 162.322 76.6492 163.999 74.0341 164.687C73.6966 164.945 73.2327 165.16 72.7265 165.332C66.5682 167.525 60.4943 167.482 54.4626 164.902C53.9986 164.73 53.7033 164.515 53.4924 164.171C51.2147 163.354 49.2744 161.806 47.8825 159.828C47.8825 159.957 47.8825 160.086 47.8825 160.215C43.2427 158.237 38.8981 146.971 39.9105 139.618C41.5133 127.836 49.9915 119.021 60.9161 117.688C72.2625 116.312 82.5544 122.59 86.7303 133.383C90.3577 142.972 87.4895 153.937 80.6985 160.086ZM120.727 156.087C123.342 156.087 125.62 158.065 126.042 160.688C126.59 164.042 123.933 167.052 120.727 167.052C117.775 167.052 115.328 164.472 115.37 161.462C115.37 158.452 117.775 156.087 120.727 156.087ZM127.012 84.5348C137.684 83.8468 147.512 90.0818 151.35 99.9718C155.02 109.432 152.615 120.741 145.656 126.933C143.8 129.771 140.678 131.835 137.346 132.351C137.22 132.394 137.093 132.437 136.924 132.48C130.977 134.501 125.072 134.372 119.251 131.921C118.829 131.749 118.534 131.534 118.323 131.319C115.961 130.588 113.936 129.126 112.46 127.148C112.46 127.191 112.46 127.191 112.46 127.234C107.019 123.063 102.674 112.958 105.247 102.982C107.947 92.8338 116.847 85.2228 127.012 84.5348Z" fill="#EE86A7"/>
</g>
<defs>
<clipPath id="clip0_0_126">
<rect width="160" height="180" fill="white"/>
</clipPath>
</defs>
</svg>
