<svg width="166" height="200" viewBox="0 0 166 200" fill="none" xmlns="http://www.w3.org/2000/svg">
<g clip-path="url(#clip0_0_76)">
<path d="M116.759 65.1833C99.3017 48.3432 80.0223 34.1022 56.5225 25.4166C56.8556 27.1039 57.1268 28.5045 57.4123 29.9004C57.693 31.2634 57.9832 32.617 58.2972 34.0834C56.337 34.497 54.5622 34.873 52.6114 35.2819C51.6075 30.5725 50.575 26.0041 49.6995 21.4122C49.4141 19.9223 50.2086 18.6909 51.7502 18.3384C56.7699 17.1869 61.8134 16.1388 67.09 14.9967C67.4992 16.9519 67.8751 18.7379 68.2748 20.6226C66.638 20.9939 65.2154 21.3182 63.8927 21.619C71.4769 25.5717 79.0992 29.5432 86.712 33.51C86.3599 32.8332 85.946 32.0295 85.3988 30.9861C87.9824 29.609 90.5612 28.2319 93.259 26.7937C94.1393 28.5374 94.9814 30.1965 95.8617 31.9402C93.6682 33.1058 91.5842 34.2103 89.2147 35.4699C100.753 43.0792 111.22 51.6567 120.879 61.1695C119.504 62.5137 118.205 63.778 116.759 65.1833Z" fill="#EFA98D"/>
<path d="M146.964 66.5605C151.57 65.2586 155.885 63.9849 160.234 62.8334C162.194 62.3117 163.55 62.9509 164.093 64.6993C165.582 69.5074 166.938 74.3578 168.418 79.4338C166.495 79.9696 164.711 80.4678 162.827 80.9942C162.313 79.3022 161.852 77.7982 161.252 75.8195C152.459 98.7837 138.447 117.875 121.608 135.185C120.329 133.756 119.092 132.375 117.74 130.871C134.631 113.354 149.086 93.7359 157.213 69.686C154.144 70.5273 151.436 71.2746 148.558 72.0642C148.02 70.2124 147.521 68.4922 146.964 66.5605Z" fill="#EFA98D"/>
<path d="M104.136 185.01C103.575 183.098 103.09 181.424 102.538 179.549C104.208 179.023 105.797 178.52 107.738 177.909C84.5192 169.256 65.1969 155.382 47.54 138.636C48.9912 137.409 50.3805 136.239 51.9792 134.89C60.634 143.03 70.0834 150.935 80.4891 157.642C90.8616 164.33 101.7 170.097 113.957 173.839C113.143 170.962 112.396 168.302 111.573 165.388C113.381 164.876 115.165 164.373 117.183 163.804C118.506 168.499 119.857 173.03 121.037 177.608C121.422 179.107 120.523 180.292 119.057 180.729C114.181 182.19 109.275 183.549 104.136 185.01Z" fill="#EFA98D"/>
<path d="M8.66957 126.459C11.7432 125.829 14.4601 125.27 17.3624 124.678C17.7859 126.534 18.1808 128.278 18.6281 130.233C16.7201 130.656 14.9026 131.075 13.0755 131.465C10.4062 132.038 7.73701 132.607 5.06301 133.143C3.35489 133.486 2.09402 132.818 1.48024 131.295C1.32798 130.915 1.22806 130.511 1.14242 130.111C0.143238 125.477 -0.851184 120.843 -1.88843 116.011C0.0338043 115.602 1.80378 115.221 3.75932 114.808C4.13044 116.382 4.4635 117.821 4.91075 119.724C14.3982 97.7797 28.2773 79.3745 44.8637 62.7882C46.253 64.1841 47.5377 65.4672 48.9413 66.8772C40.4768 75.4406 32.5262 84.521 25.6509 94.4803C18.7946 104.397 12.8899 114.798 8.66957 126.459Z" fill="#EFA98D"/>
<path d="M123.643 181.929C123.934 180.176 124.224 178.409 124.443 177.06C128.045 177.06 131.418 177.107 134.782 177.051C140.977 176.943 146.805 175.523 151.83 171.787C157.306 167.712 160.037 162.029 161.022 155.468C162.393 146.369 160.718 137.589 157.925 128.97C156.773 125.412 155.365 121.934 154.028 118.296C155.693 117.572 157.363 116.844 159.362 115.969C160.894 120.148 162.545 124.213 163.872 128.382C165.98 135.009 167.312 141.81 167.336 148.785C167.37 157.771 165.409 166.142 159.072 173.018C155.208 177.21 150.407 179.852 144.902 181.379C138.921 183.043 128.725 183.391 123.643 181.929Z" fill="#EFA98D"/>
<path d="M101.046 29.2435C100.304 27.5844 99.5662 25.9394 98.7383 24.1017C100.47 23.3967 102.131 22.6823 103.82 22.0431C112.974 18.5886 122.343 16.1164 132.23 16.1023C141.294 16.0929 149.668 18.1233 156.558 24.3508C160.792 28.1813 163.433 32.9612 164.946 38.3991C166.859 45.2611 166.702 52.1654 165.598 59.2577C163.709 58.9663 161.963 58.7031 159.969 58.3976C160.074 57.3025 160.188 56.2262 160.283 55.1452C160.859 48.6498 160.697 42.2437 157.961 36.1431C154.502 28.4116 148.288 24.1628 140.1 22.5789C130.236 20.666 120.72 22.5836 111.352 25.5305C107.921 26.6068 104.572 27.9604 101.046 29.2435Z" fill="#EFA98D"/>
<path d="M-0.892142 140.078C1.07767 140.421 2.82386 140.727 4.77464 141.07C4.57956 142.752 4.36069 144.36 4.21795 145.972C3.7136 151.819 3.96102 157.614 6.22583 163.122C9.8086 171.827 16.7125 176.353 25.8621 177.72C29.1832 178.214 32.5804 178.181 36.1013 178.397C36.2536 180.066 36.4106 181.847 36.5866 183.755C31.5241 184.366 26.6947 183.957 21.9558 182.839C6.25437 179.135 -1.43931 166.934 -1.73907 152.148C-1.78665 149.92 -1.73907 147.683 -1.59157 145.46C-1.48213 143.711 -1.14907 141.982 -0.892142 140.078Z" fill="#EFA98D"/>
<path d="M43.6509 15.9507C43.3226 17.8072 43.0086 19.5697 42.666 21.5155C40.9246 21.3275 39.2973 21.1113 37.6606 20.9797C30.6949 20.4204 23.8624 20.8387 17.5818 24.2556C10.088 28.3258 6.53375 34.981 5.45844 43.0744C5.05401 46.1341 5.0778 49.2455 4.897 52.4744C3.15081 52.6248 1.34753 52.7799 -0.446238 52.9303C-2.4779 35.1079 6.0865 18.2161 26.4983 15.4713C32.1841 14.7052 37.8461 14.9872 43.6509 15.9507Z" fill="#EFA98D"/>
<path d="M73.8302 165.579C74.7723 167.285 75.6383 168.864 76.6137 170.631C73.2878 172.286 70.0904 173.874 66.6885 175.561C65.8463 173.757 65.0755 172.093 64.2571 170.335C67.445 168.746 70.5472 167.205 73.8302 165.579Z" fill="#EFA98D"/>
<path d="M21.91 107.989C23.5848 106.852 25.0883 105.832 26.7108 104.732C28.8138 107.585 30.8693 110.368 33.0484 113.319C31.5116 114.499 30.0366 115.632 28.4379 116.863C26.254 113.888 24.1605 111.044 21.91 107.989Z" fill="#EFA98D"/>
<path d="M52.7258 62.7475C51.3936 61.3657 50.1327 60.0591 48.7196 58.5927C51.4507 56.1393 54.1057 53.7611 56.9176 51.2372C58.2118 52.7224 59.4299 54.1183 60.7288 55.6082C58.031 58.0146 55.4379 60.327 52.7258 62.7475Z" fill="#EFA98D"/>
<path d="M12.8699 93.2747C11.1808 89.9565 9.57263 86.7934 7.87402 83.447C9.7011 82.6198 11.3949 81.849 13.1649 81.0453C14.7636 84.1943 16.329 87.2681 17.9753 90.5017C16.3385 91.39 14.7065 92.2783 12.8699 93.2747Z" fill="#EFA98D"/>
<path d="M134.298 85.7379C135.831 84.577 137.277 83.482 138.918 82.2365C141.093 85.2116 143.224 88.1161 145.418 91.1147C143.81 92.1958 142.301 93.2062 140.603 94.3436C138.49 91.4625 136.43 88.6519 134.298 85.7379Z" fill="#EFA98D"/>
<path d="M96.5802 150.476C97.7935 152.008 98.9402 153.46 100.163 155.011C97.1702 157.169 94.3059 159.232 91.2084 161.464C90.1093 159.904 89.0483 158.405 87.8778 156.741C90.7754 154.654 93.616 152.61 96.5802 150.476Z" fill="#EFA98D"/>
<path d="M108.6 147.956C107.249 146.419 106.092 145.098 104.789 143.618C107.425 141.225 110.018 138.875 112.587 136.544C113.972 137.841 115.332 139.11 116.831 140.511C114.057 143.016 111.407 145.413 108.6 147.956Z" fill="#EFA98D"/>
<path d="M68.9793 48.8143C67.7612 47.2398 66.6526 45.8063 65.4393 44.2365C68.4654 42.0745 71.3821 39.9877 74.4177 37.821C75.5263 39.4284 76.5588 40.9183 77.7007 42.5774C74.8174 44.6407 71.9911 46.6617 68.9793 48.8143Z" fill="#EFA98D"/>
<path d="M127.629 77.3214C125.184 74.6565 122.848 72.1185 120.388 69.4442C121.806 68.1094 123.162 66.831 124.618 65.4633C127.101 68.1799 129.504 70.8119 132.049 73.5896C130.56 74.8492 129.147 76.0383 127.629 77.3214Z" fill="#EFA98D"/>
<path d="M39.7834 121.66C42.2575 124.33 44.608 126.873 46.9489 129.401C45.631 130.769 44.332 132.118 42.9237 133.58C40.3876 130.835 37.9611 128.208 35.4155 125.463C36.8715 124.189 38.237 123.005 39.7834 121.66Z" fill="#EFA98D"/>
<path d="M9.28205 71.1111C7.43594 71.7362 5.72306 72.319 3.79131 72.9723C2.88729 69.8844 2.0261 66.9375 1.13159 63.859C3.12995 63.3937 4.89993 62.9848 6.79837 62.543C7.62626 65.41 8.43512 68.1877 9.28205 71.1111Z" fill="#EFA98D"/>
<path d="M54.4621 174.267C55.0901 176.058 55.6658 177.703 56.3605 179.682C53.2821 180.565 50.275 181.43 47.1347 182.333C46.6589 180.316 46.245 178.573 45.812 176.735C48.7001 175.912 51.4598 175.123 54.4621 174.267Z" fill="#EFA98D"/>
<path d="M156.453 109.953C154.883 110.738 153.517 111.424 152.142 112.096C151.885 112.223 151.6 112.303 151.219 112.44C150.862 111.8 150.524 111.194 150.196 110.588C149.254 108.849 148.316 107.11 147.313 105.249C149.011 104.29 150.586 103.401 152.361 102.4C153.726 104.92 155.049 107.368 156.453 109.953Z" fill="#EFA98D"/>
<path d="M115.485 121.409C114.61 122.984 113.278 123.496 111.455 123.492C94.6692 123.44 77.8782 123.463 61.092 123.459C58.0611 123.459 57.0905 122.519 57.1143 119.52C57.1571 115.135 56.9049 110.712 57.376 106.369C58.2039 98.8165 62.4528 93.4491 69.3043 90.0651C69.5232 89.957 69.7373 89.8395 70.0798 89.6609C66.9443 84.5661 66.0498 79.147 67.8388 73.4318C69.1378 69.2864 71.669 65.9776 75.2565 63.496C82.3745 58.5751 92.1094 59.0451 98.6516 64.4642C105.051 69.7658 108.515 79.8191 102.548 89.6938C105.641 91.0803 108.348 92.9838 110.532 95.5688C112.992 98.4781 114.548 101.796 115.195 105.528C115.252 105.852 115.381 106.163 115.481 106.482C115.485 111.455 115.485 116.432 115.485 121.409ZM109.519 117.555C109.519 114.143 109.69 110.877 109.481 107.629C109.095 101.73 104.861 96.537 99.1845 94.7792C98.5898 94.5959 97.7048 94.6852 97.1766 95.0048C89.9112 99.4322 82.6933 99.4322 75.4278 95.0048C74.8997 94.6852 74.01 94.5818 73.42 94.7792C68.5049 96.4195 65.2077 99.7424 63.7041 104.626C62.4004 108.846 63.2378 113.208 63.0285 117.56C78.6109 117.555 93.9888 117.555 109.519 117.555ZM86.4664 65.9259C79.1771 65.7755 73.0536 71.6364 72.8728 78.9355C72.692 86.1171 78.7013 92.2976 85.9906 92.4198C93.4416 92.5467 99.5747 86.7375 99.7365 79.4055C99.8982 72.1346 93.9365 66.0763 86.4664 65.9259Z" fill="#EFA98D"/>
</g>
<defs>
<clipPath id="clip0_0_76">
<rect width="166" height="200" fill="white"/>
</clipPath>
</defs>
</svg>
