<svg width="82" height="82" viewBox="0 0 82 82" fill="none" xmlns="http://www.w3.org/2000/svg">
<path d="M56.0987 12.4822C56.0987 10.7591 57.4956 9.36223 59.2187 9.36223L65.4587 9.36223V3.12223C65.4587 1.3991 66.8556 0.00223103 68.5787 0.00223103C70.3018 0.00223103 71.6987 1.3991 71.6987 3.12223V9.36223L77.9387 9.36223C79.6618 9.36223 81.0587 10.7591 81.0587 12.4822C81.0587 14.2054 79.6618 15.6022 77.9387 15.6022L71.6987 15.6022V21.8422C71.6987 23.5654 70.3018 24.9622 68.5787 24.9622C66.8556 24.9622 65.4587 23.5654 65.4587 21.8422V15.6022L59.2187 15.6022C57.4956 15.6022 56.0987 14.2054 56.0987 12.4822ZM80.4971 33.8074C83.4218 51.1929 74.7722 68.4749 59.1025 76.5538C43.4328 84.6328 24.3378 81.6553 11.8717 69.1892C-0.594429 56.7231 -3.57187 37.6281 4.50708 21.9584C12.586 6.28875 29.868 -2.36089 47.2535 0.563831C48.9392 0.861937 50.0699 2.4626 49.7874 4.15098C49.5049 5.83936 47.9148 6.98483 46.2239 6.71803C36.263 5.0424 26.0696 7.83616 18.355 14.3562C10.6403 20.8762 6.18668 30.4614 6.17869 40.5622C6.17129 48.9636 9.2591 57.0732 14.8523 63.3421C18.332 58.2997 23.2249 54.3987 28.9157 52.1296C22.6496 47.1943 20.199 38.8307 22.8106 31.2941C25.4222 23.7575 32.5224 18.7034 40.4987 18.7034C48.4749 18.7034 55.5752 23.7575 58.1868 31.2941C60.7984 38.8307 58.3477 47.1943 52.0817 52.1296C57.7725 54.3987 62.6654 58.2997 66.1451 63.3421C71.7383 57.0732 74.8261 48.9636 74.8187 40.5622C74.8188 38.644 74.6597 36.729 74.3429 34.837C74.1476 33.7326 74.5601 32.6083 75.4233 31.8923C76.2866 31.1763 77.4677 30.9787 78.517 31.3747C79.5663 31.7708 80.3223 32.6996 80.4971 33.8074ZM40.4987 49.9222C47.3912 49.9222 52.9787 44.3347 52.9787 37.4422C52.9787 30.5497 47.3912 24.9622 40.4987 24.9622C33.6062 24.9622 28.0187 30.5497 28.0187 37.4422C28.0187 44.3347 33.6062 49.9222 40.4987 49.9222ZM40.4987 74.8822C48.1168 74.8899 55.5188 72.3503 61.5275 67.6672C56.9407 60.4936 49.0134 56.1531 40.4987 56.1531C31.984 56.1531 24.0567 60.4936 19.4699 67.6672C25.4786 72.3503 32.8806 74.8899 40.4987 74.8822Z" fill="#878CED"/>
</svg>
